<svg width="48" height="48" viewBox="0 0 48 48" fill="none" xmlns="http://www.w3.org/2000/svg">
<rect y="-0.000244141" width="48" height="48" rx="12" fill="#FFA370" fill-opacity="0.12"/>
<path d="M23.9993 37.8332C16.6527 37.8332 10.666 31.8465 10.666 24.4998C10.666 17.1532 16.6527 11.1665 23.9993 11.1665C31.346 11.1665 37.3327 16.5532 37.3327 23.1665C37.3327 27.5798 33.746 31.1665 29.3327 31.1665H26.9727C26.5993 31.1665 26.306 31.4598 26.306 31.8332C26.306 31.9932 26.3727 32.1398 26.4793 32.2732C27.026 32.8998 27.3327 33.6865 27.3327 34.4998C27.3327 35.3839 26.9815 36.2317 26.3564 36.8569C25.7312 37.482 24.8834 37.8332 23.9993 37.8332ZM23.9993 13.8332C18.1193 13.8332 13.3327 18.6198 13.3327 24.4998C13.3327 30.3798 18.1193 35.1665 23.9993 35.1665C24.3727 35.1665 24.666 34.8732 24.666 34.4998C24.6619 34.3269 24.5956 34.1613 24.4793 34.0332C23.9327 33.4198 23.6393 32.6332 23.6393 31.8332C23.6393 30.9491 23.9905 30.1013 24.6157 29.4761C25.2408 28.851 26.0886 28.4998 26.9727 28.4998H29.3327C32.2793 28.4998 34.666 26.1132 34.666 23.1665C34.666 18.0198 29.8793 13.8332 23.9993 13.8332Z" fill="#F36E24"/>
<path d="M16.666 25.833C17.7706 25.833 18.666 24.9376 18.666 23.833C18.666 22.7284 17.7706 21.833 16.666 21.833C15.5614 21.833 14.666 22.7284 14.666 23.833C14.666 24.9376 15.5614 25.833 16.666 25.833Z" fill="#F36E24"/>
<path d="M20.666 20.4998C21.7706 20.4998 22.666 19.6043 22.666 18.4998C22.666 17.3952 21.7706 16.4998 20.666 16.4998C19.5614 16.4998 18.666 17.3952 18.666 18.4998C18.666 19.6043 19.5614 20.4998 20.666 20.4998Z" fill="#F36E24"/>
<path d="M27.334 20.4998C28.4386 20.4998 29.334 19.6043 29.334 18.4998C29.334 17.3952 28.4386 16.4998 27.334 16.4998C26.2294 16.4998 25.334 17.3952 25.334 18.4998C25.334 19.6043 26.2294 20.4998 27.334 20.4998Z" fill="#F36E24"/>
<path d="M31.334 25.833C32.4386 25.833 33.334 24.9376 33.334 23.833C33.334 22.7284 32.4386 21.833 31.334 21.833C30.2294 21.833 29.334 22.7284 29.334 23.833C29.334 24.9376 30.2294 25.833 31.334 25.833Z" fill="#F36E24"/>
</svg>
